<svg xmlns="http://www.w3.org/2000/svg" width="29" height="35">
    <path fill="#B7B7B7" fill-rule="evenodd"
          d="M14.174 18.706c4.956 0 6.617-5.071 7.063-9.23C21.807 4.405 19.477.5 14.174.5S6.542 4.354 7.112 9.476c.446 4.159 2.205 9.23 7.062 9.23zm14.249 12.679a29.958 29.958 0 0 0-.62-4.793 9.08 9.08 0 0 0-2.478-5.959 14.665 14.665 0 0 0-3.469-1.369c-.504-.16-1-.347-1.487-.558a8.704 8.704 0 0 1-12.39 0c-.508.248-1.03.468-1.56.66a14.66 14.66 0 0 0-3.396 1.267 9.078 9.078 0 0 0-2.478 5.858A29.938 29.938 0 0 0 0 31.18c0 1.218.595 1.395 1.685 1.75a33.2 33.2 0 0 0 4.188 1.09 36.347 36.347 0 0 0 16.751 0 33.15 33.15 0 0 0 4.188-1.09c1.09-.355 1.735-.532 1.685-1.75l-.074.204z"
          opacity=".9"/>
</svg>